<svg width="700" height="739" viewBox="0 0 700 739" fill="none" xmlns="http://www.w3.org/2000/svg">
<path d="M197.656 420.157C195.555 425.039 193.21 427.834 189.103 431.18C187.663 432.368 187.663 432.368 186.193 433.58C185.46 434.168 184.727 434.756 183.972 435.362C183.972 430.8 183.972 430.8 186.193 428.027C187.153 427.092 188.114 426.157 189.103 425.194C190.532 423.774 190.532 423.774 191.99 422.325C194.615 420.157 194.615 420.157 197.656 420.157Z" fill="#22486A"/>
<path d="M412.036 359.34C418.131 361.825 420.926 366.091 425.625 370.553C427.398 372.217 429.172 373.88 430.946 375.542C431.848 376.391 432.75 377.239 433.678 378.114C436.203 380.476 438.747 382.813 441.304 385.14C451.067 394.032 460.546 403.141 469.782 412.581C475.139 418.022 480.709 423.098 486.487 428.089C491.613 432.586 496.517 437.314 501.456 442.013C510.86 450.884 520.465 459.294 530.63 467.291C532.229 468.589 533.826 469.89 535.422 471.193C559.025 490.296 585.034 508.795 613.493 519.745C614.495 520.134 615.496 520.523 616.529 520.924C626.157 524.422 632.306 524.268 641.621 520.506C657.25 518.693 668.773 520.857 681.194 530.501C689.102 537.674 693.903 545.868 695.412 556.491C695.966 569.163 692.443 580.058 684.763 590.16C675.738 599.611 665.972 603.076 653.024 603.559C641.442 603.183 631.695 600.285 623.376 591.966C621.31 591.11 619.213 590.33 617.104 589.59C579.737 575.064 543.989 547.076 516.286 518.332C513.609 515.647 510.794 513.189 507.918 510.718C498.566 502.629 490.086 493.876 482.035 484.502C478.881 480.913 475.644 477.418 472.383 473.926C464.783 465.786 457.508 457.509 450.54 448.814C448.022 445.729 445.482 442.714 442.854 439.727C432.013 427.388 422.158 414.523 412.529 401.217C407.459 394.225 402.175 386.65 396.832 379.866C402.914 373.024 403.674 372.264 406.715 367.702C407.675 366.346 408.766 364.539 409.755 363.141C410.855 361.601 410.914 360.912 412.036 359.34Z" fill="#10385B"/>
<path d="M374.786 395.859C377.948 399.126 381.376 402.301 384.098 405.903C384.897 406.933 385.695 407.962 386.517 409.022C394.072 418.87 401.109 429.05 408.024 439.352C450.001 502.89 450.001 502.89 498.035 561.842C502.006 566.19 505.913 570.563 509.724 575.051C522.534 589.699 536.565 602.919 551.916 614.867C553.392 616.065 554.867 617.262 556.388 618.496C573.801 632.378 592.451 644.494 613.018 653.163C614.055 653.606 615.092 654.05 616.161 654.506C625.158 658.079 633.091 658.415 642.381 655.919C655.127 652.958 664.854 654.879 676.591 660.48C686.195 666.777 692.687 675.427 696.356 686.327C697.679 697.85 697.76 708.442 691.189 718.316C682.663 728.756 673.242 735.333 659.866 738.022C647.711 738.871 639.088 736.808 629.089 729.992C624.145 726.91 618.966 724.806 613.588 722.628C590.979 713.174 570.871 698.64 551.916 683.287C550.556 682.218 549.195 681.15 547.794 680.05C535.376 670.163 523.823 659.31 512.385 648.317C511.532 647.532 510.222 646.085 509.344 645.276C507.366 643.094 500.221 634.538 507.823 643.66C502.122 636.818 502.502 637.579 497.94 631.497C488.058 620.854 484.158 617.707 475.68 606.742C472.909 603.168 470.085 599.657 467.176 596.194C435.459 558.206 410.497 514.13 387.495 470.509C381.102 458.386 374.589 446.346 367.849 434.411C367.089 433.06 366.329 431.708 365.547 430.316C360.717 421.813 355.57 413.577 350.189 405.411C348.178 402.007 348.178 401.181 348.178 398.14C351.309 397.328 354.446 397.368 357.586 396.591C360.205 395.929 360.205 395.929 362.878 395.254C370.726 393.939 369.966 393.872 374.786 395.859Z" fill="#098865"/>
<path d="M677.351 8.22323C685.385 12.759 690.246 17.7845 694.836 25.7082C696.247 27.7778 696.247 27.7778 697.687 29.8893C702.24 43.0427 699.539 54.771 694.2 67.2289C691.795 71.321 691.795 71.321 688.095 74.6707C682.631 80.6253 680.812 87.0185 678.301 94.6026C677.239 97.6394 676.172 100.674 675.1 103.707C674.578 105.192 674.056 106.677 673.518 108.207C662.752 138.334 645.831 166.105 626.416 191.435C625.315 192.875 624.213 194.316 623.079 195.8C614.344 206.836 604.545 216.6 594.487 226.405C593.174 227.722 591.861 229.039 590.508 230.396C555.733 265.058 512.679 286.614 466.29 301.147C462.817 302.236 459.356 303.355 455.897 304.487C443.824 308.249 431.507 309.542 418.878 309.926C417.641 306.727 417.166 303.63 415.932 300.431C414.9 297.758 414.9 297.758 413.847 295.032C412.675 291.945 410.039 289.493 408.995 286.36C410.328 286.005 413.181 284.992 414.554 284.626C460.186 271.503 503.28 246.593 538 214.241C541.012 211.442 544.107 208.802 547.259 206.164C570.977 185.292 589.279 158.598 603.61 130.618C604.083 129.7 604.557 128.783 605.044 127.837C611.012 116.109 615.861 104.027 620.335 91.6568C620.814 90.3588 621.294 89.0608 621.788 87.7235C624.638 79.5657 625.563 74.6941 621.95 66.6113C621.417 65.6254 620.884 64.6396 620.335 63.6239C615.591 54.8175 614.51 46.2771 615.773 36.3512C620.564 22.6163 629.394 13.4759 641.621 5.94259C653.402 2.01559 666.167 3.05807 677.351 8.22323Z" fill="#10385B"/>
<path d="M533.339 26.4411C543.555 33.8704 551.173 42.9127 553.248 55.7015C554.054 69.1576 550.052 79.6317 541.536 89.813C540.351 91.0749 539.165 92.3367 537.943 93.6368C532.047 100.309 527.846 107.985 523.326 115.613C503.351 148.759 480.361 177.775 450.839 202.938C448.943 204.622 448.943 204.622 447.01 206.34C431.05 220.318 412.103 231.758 395.613 242.944C392.342 245.164 389.341 246.622 386.27 248.57C373.11 255.975 373.659 255.584 364.903 253.67C361.102 252.91 360.666 252.87 356.617 252.18C351.979 251.39 351.219 251.39 343.617 251.39C337.489 251.317 337.535 251.39 332.214 252.15C336.184 248.015 339.056 244.548 350.405 235.215C382.388 211.858 382.193 212.315 396.197 198.52C396.997 197.746 397.796 196.972 398.62 196.175C412.876 182.36 425.683 167.72 437.861 152.051C438.54 151.19 439.22 150.329 439.919 149.442C448.641 138.318 455.869 126.539 462.802 114.225C463.576 112.853 464.35 111.481 465.147 110.068C473.528 96.4629 473.528 96.4629 475.434 81.361C474.848 80.3845 474.262 79.408 473.658 78.402C473.081 77.314 472.504 76.226 471.909 75.1051C471.379 74.1106 470.849 73.116 470.302 72.0914C467.242 62.2147 468.231 51.5377 472.618 42.1956C485.866 21.1255 511.136 13.5382 533.339 26.4411Z" fill="#098865"/>
<path d="M49.8453 204.633C54.3981 204.807 58.9396 204.824 63.4957 204.835C109.002 205.246 156.723 213.117 198.321 232.155C200.582 233.134 202.845 234.11 205.109 235.083C264.274 260.765 263.609 260.235 284.32 281.798C280.808 287.819 276.718 293.962 274.437 300.804C269.166 299.749 265.382 298.684 260.629 296.672C258.891 295.95 258.891 295.95 257.119 295.213C255.872 294.693 254.626 294.173 253.341 293.637C221.982 280.919 190.573 271.731 157.269 265.604C155.733 265.313 154.197 265.022 152.614 264.722C139.351 262.423 126.165 261.698 112.729 261.499C110.228 261.448 107.728 261.365 105.23 261.249C90.1353 260.225 90.1354 260.225 76.6837 265.868C73.298 269.675 70.4804 273.601 67.5641 277.768C57.947 285.967 47.3666 286.131 35.1837 285.94C24.6854 284.877 17.8917 280.349 10.8331 272.731C9.42174 270.899 8.05803 269.03 6.7469 267.125C6.11776 266.219 5.48862 265.314 4.84042 264.381C-0.92006 254.706 -0.764648 244.12 1.33037 233.271C4.71455 222.527 12.664 214.067 21.8562 207.828C30.868 203.374 40.077 204.153 49.8453 204.633Z" fill="#098865"/>
<path d="M209.542 319.812C211.355 319.811 213.167 319.81 215.034 319.809C233.439 319.916 251.671 321.352 269.979 323.138C270.636 335.013 269.846 334.892 272.917 347.177C267.595 347.937 272.157 347.177 265.37 348.528C206.008 354.575 144.869 365.114 93.6095 397.639C91.9631 398.58 90.3168 399.52 88.6206 400.49C83.6587 404.368 83.1646 406.258 82.2062 412.368C79.8593 423.378 76.2281 431.7 66.9366 438.465C54.2619 446.183 44.4736 447.359 29.7514 446.293C19.0944 443.554 10.894 435.52 4.93163 426.533C-0.708333 415.748 -1.3072 403.527 2.09864 391.902C10.1604 373.707 25.564 366.61 43.0159 359.558C46.6033 358.054 50.1161 356.437 53.6329 354.776C72.0982 346.073 90.7526 339.505 110.334 333.781C112.3 333.183 114.266 332.585 116.232 331.987C127.885 328.628 139.629 326.408 151.576 324.373C153.062 324.119 154.549 323.865 156.08 323.603C173.849 320.72 191.557 319.802 209.542 319.812Z" fill="#10385B"/>
<path d="M282.04 366.942C284.415 369.205 286.696 372.246 288.881 375.02C292.209 379.188 296.466 382.98 300.285 386.708C298.738 387.813 297.978 387.814 296.4 388.941C286.557 396.031 276.973 403.341 267.595 411.035C266.149 412.197 264.703 413.359 263.212 414.557C241.838 431.967 221.865 451.563 205.598 473.864C203.701 476.464 201.767 479.034 199.829 481.604C179.627 507.08 179.627 507.08 170.573 536.565C171.457 539.216 172.393 541.85 173.365 544.47C176.646 555.351 176.538 566.917 171.808 577.332C165.907 587.556 157.424 595.334 146.056 598.909C133.093 601.634 120.942 598.787 109.851 591.681C101.797 585.477 96.3937 575.981 94.2666 566.119C92.8077 551.754 95.7159 541.419 104.595 530.086C109.573 523.547 113.836 516.679 118.118 509.673C125.522 497.779 133.411 486.629 142.369 475.864C144.408 473.412 146.414 470.935 148.42 468.455C170.25 441.862 194.821 417.932 223.503 398.872C224.575 398.157 225.647 397.443 226.751 396.707C274.155 365.473 271.874 362.431 282.04 366.942Z" fill="#10375B"/>
<circle cx="346.658" cy="325.891" r="39.5312" fill="#048D7F"/>
<path d="M345.137 252.369C385.742 252.369 418.659 285.286 418.659 325.891C418.659 366.495 385.742 399.412 345.137 399.412C304.533 399.412 271.616 366.495 271.616 325.891C271.616 285.286 304.533 252.369 345.137 252.369Z" stroke="#10385B" stroke-width="5"/>
</svg>
